<svg width="12" height="12" viewBox="0 0 12 12" fill="none" xmlns="http://www.w3.org/2000/svg">
<path d="M6 3.77778V8.22222M3.77778 6H8.22222M3.66667 11H8.33333C9.26675 11 9.73346 11 10.09 10.8183C10.4036 10.6586 10.6586 10.4036 10.8183 10.09C11 9.73346 11 9.26675 11 8.33333V3.66667C11 2.73325 11 2.26654 10.8183 1.91002C10.6586 1.59641 10.4036 1.34144 10.09 1.18166C9.73346 1 9.26675 1 8.33333 1H3.66667C2.73325 1 2.26654 1 1.91002 1.18166C1.59641 1.34144 1.34144 1.59641 1.18166 1.91002C1 2.26654 1 2.73325 1 3.66667V8.33333C1 9.26675 1 9.73346 1.18166 10.09C1.34144 10.4036 1.59641 10.6586 1.91002 10.8183C2.26654 11 2.73325 11 3.66667 11Z" stroke="white" stroke-width="1.2" stroke-linecap="round" stroke-linejoin="round"/>
</svg>
