<svg width="30" height="30" viewBox="0 0 30 30" fill="none" xmlns="http://www.w3.org/2000/svg">
<g id="Group 483606">
<rect id="Rectangle 3854" width="30" height="30" rx="2" fill="white"/>
<g id="pencil-01">
<path id="Icon" d="M5 24.3284L10.5493 22.1941C10.9042 22.0576 11.0817 21.9893 11.2477 21.9002C11.3952 21.821 11.5358 21.7297 11.668 21.627C11.8169 21.5115 11.9514 21.3771 12.2203 21.1082L23.5 9.82843C24.6046 8.72386 24.6046 6.933 23.5 5.82843C22.3955 4.72386 20.6046 4.72386 19.5 5.82842L8.22028 17.1081C7.95138 17.3771 7.81692 17.5115 7.70139 17.6604C7.59877 17.7926 7.5074 17.9332 7.42823 18.0807C7.33911 18.2468 7.27085 18.4242 7.13433 18.7792L5 24.3284ZM5 24.3284L7.05812 18.9774C7.2054 18.5945 7.27903 18.403 7.40534 18.3153C7.51572 18.2387 7.6523 18.2097 7.7843 18.2349C7.93533 18.2637 8.08038 18.4088 8.37048 18.6989L10.6296 20.958C10.9197 21.2481 11.0647 21.3931 11.0936 21.5442C11.1188 21.6762 11.0898 21.8127 11.0131 21.9231C10.9254 22.0494 10.734 22.1231 10.3511 22.2703L5 24.3284Z" stroke="black" stroke-width="2" stroke-linecap="round" stroke-linejoin="round"/>
</g>
</g>
</svg>
