<svg width="20" height="20" viewBox="0 0 20 20" fill="none" xmlns="http://www.w3.org/2000/svg">
<rect width="20" height="20" rx="2" fill="#E74238"/>
<path d="M12.6667 5.66667V5.13333C12.6667 4.3866 12.6667 4.01323 12.5213 3.72801C12.3935 3.47713 12.1895 3.27316 11.9387 3.14532C11.6534 3 11.2801 3 10.5333 3H9.46667C8.71993 3 8.34656 3 8.06135 3.14532C7.81046 3.27316 7.60649 3.47713 7.47866 3.72801C7.33333 4.01323 7.33333 4.3866 7.33333 5.13333V5.66667M8.66667 9.33333V12.6667M11.3333 9.33333V12.6667M4 5.66667H16M14.6667 5.66667V13.1333C14.6667 14.2534 14.6667 14.8135 14.4487 15.2413C14.2569 15.6176 13.951 15.9236 13.5746 16.1153C13.1468 16.3333 12.5868 16.3333 11.4667 16.3333H8.53333C7.41323 16.3333 6.85318 16.3333 6.42535 16.1153C6.04903 15.9236 5.74307 15.6176 5.55132 15.2413C5.33333 14.8135 5.33333 14.2534 5.33333 13.1333V5.66667" stroke="white" stroke-width="1.2" stroke-linecap="round" stroke-linejoin="round"/>
</svg>
