<svg width="20" height="20" viewBox="0 0 20 20" fill="none" xmlns="http://www.w3.org/2000/svg">
<rect width="20" height="20" rx="2" fill="#2D68FF"/>
<path d="M15.0071 15.2025H10.2473M4 15.5L7.30169 14.2301C7.51287 14.1489 7.61846 14.1083 7.71725 14.0552C7.805 14.0081 7.88866 13.9538 7.96734 13.8927C8.05592 13.824 8.13591 13.744 8.29591 13.584L15.0071 6.87281C15.6643 6.21561 15.6643 5.15009 15.0071 4.4929C14.3499 3.8357 13.2844 3.8357 12.6272 4.49289L5.916 11.2041C5.756 11.3641 5.67601 11.4441 5.60727 11.5327C5.54621 11.6113 5.49185 11.695 5.44475 11.7827C5.39172 11.8815 5.3511 11.9871 5.26988 12.1983L4 15.5ZM4 15.5L5.22454 12.3162C5.31216 12.0884 5.35598 11.9745 5.43112 11.9223C5.4968 11.8767 5.57806 11.8595 5.65659 11.8745C5.74646 11.8916 5.83276 11.9779 6.00536 12.1505L7.34947 13.4946C7.52207 13.6672 7.60838 13.7535 7.62554 13.8434C7.64053 13.9219 7.62329 14.0032 7.57769 14.0689C7.52551 14.144 7.4116 14.1878 7.18377 14.2755L4 15.5Z" stroke="white" stroke-width="1.2" stroke-linecap="round" stroke-linejoin="round"/>
</svg>
