<svg width="30" height="30" viewBox="0 0 30 30" fill="none" xmlns="http://www.w3.org/2000/svg">
<g id="Group 483623">
<rect id="Rectangle 3854" width="30" height="30" rx="2" fill="white"/>
<g id="info-hexagon">
<path id="Icon" d="M15 18.856V14.856M15 10.856H15.01M6 10.7975V18.9146C6 19.2572 6 19.4286 6.05048 19.5814C6.09515 19.7165 6.16816 19.8406 6.26463 19.9453C6.37369 20.0636 6.52345 20.1468 6.82297 20.3132L14.223 24.4244C14.5066 24.5819 14.6484 24.6607 14.7985 24.6916C14.9315 24.7189 15.0685 24.7189 15.2015 24.6916C15.3516 24.6607 15.4934 24.5819 15.777 24.4244L23.177 20.3132C23.4766 20.1468 23.6263 20.0636 23.7354 19.9453C23.8318 19.8406 23.9049 19.7165 23.9495 19.5814C24 19.4286 24 19.2572 24 18.9146V10.7975C24 10.4548 24 10.2835 23.9495 10.1307C23.9049 9.99555 23.8318 9.87146 23.7354 9.76678C23.6263 9.64844 23.4766 9.56524 23.177 9.39883L15.777 5.28772C15.4934 5.13017 15.3516 5.05139 15.2015 5.0205C15.0685 4.99317 14.9315 4.99317 14.7985 5.0205C14.6484 5.05139 14.5066 5.13017 14.223 5.28772L6.82297 9.39883C6.52345 9.56524 6.37369 9.64844 6.26463 9.76678C6.16816 9.87146 6.09515 9.99555 6.05048 10.1307C6 10.2835 6 10.4548 6 10.7975Z" stroke="black" stroke-width="2" stroke-linecap="round" stroke-linejoin="round"/>
</g>
</g>
</svg>
