<svg width="19" height="19" viewBox="0 0 19 19" fill="none" xmlns="http://www.w3.org/2000/svg">
<path d="M9.075 3.55H9.44424C12.0344 3.55 13.3295 3.55 13.8211 4.0152C14.246 4.41731 14.4344 5.00969 14.3196 5.58338C14.1869 6.24706 13.1296 6.99493 11.0149 8.49065L7.56006 10.9343C5.44542 12.4301 4.38809 13.1779 4.25536 13.8416C4.14063 14.4153 4.32895 15.0077 4.75391 15.4098C5.24553 15.875 6.5406 15.875 9.13076 15.875H9.925M6.1 3.55C6.1 4.95833 4.95833 6.1 3.55 6.1C2.14167 6.1 1 4.95833 1 3.55C1 2.14167 2.14167 1 3.55 1C4.95833 1 6.1 2.14167 6.1 3.55ZM18 15.45C18 16.8583 16.8583 18 15.45 18C14.0417 18 12.9 16.8583 12.9 15.45C12.9 14.0417 14.0417 12.9 15.45 12.9C16.8583 12.9 18 14.0417 18 15.45Z" stroke="black" stroke-width="2" stroke-linecap="round" stroke-linejoin="round"/>
</svg>
